<svg width="24" height="24" viewBox="0 0 24 24" fill="none" xmlns="http://www.w3.org/2000/svg">
<path d="M3.35978 19.2401C3.59978 20.6601 4.95977 21.8101 6.39977 21.8101H17.5998C19.0298 21.8101 20.3998 20.6501 20.6398 19.2401L21.9698 11.2801C22.1298 10.3001 21.6298 8.99008 20.8598 8.37008L13.9298 2.8301C12.8598 1.9701 11.1298 1.97009 10.0698 2.82009L3.13978 8.37008C2.35978 8.99008 1.85978 10.3001 2.02978 11.2801L2.70978 15.3701" stroke="#292D32" stroke-width="1.5" stroke-linecap="round" stroke-linejoin="round"/>
<path d="M12 10.5C10.62 10.5 9.5 11.62 9.5 13C9.5 14.38 10.62 15.5 12 15.5C13.38 15.5 14.5 14.38 14.5 13" stroke="#292D32" stroke-width="1.5" stroke-linecap="round" stroke-linejoin="round"/>
</svg>
