<svg width="112" height="18" viewBox="0 0 112 18" fill="none" xmlns="http://www.w3.org/2000/svg">
<path d="M0 17.4545V0H3.69034V7.2017H11.1818V0H14.8636V17.4545H11.1818V10.2443H3.69034V17.4545H0Z" fill="black"/>
<path d="M23.7528 17.7102C22.429 17.7102 21.2841 17.429 20.3182 16.8665C19.358 16.2983 18.6165 15.5085 18.0938 14.4972C17.571 13.4801 17.3097 12.3011 17.3097 10.9602C17.3097 9.60795 17.571 8.42614 18.0938 7.41477C18.6165 6.39773 19.358 5.60795 20.3182 5.04545C21.2841 4.47727 22.429 4.19318 23.7528 4.19318C25.0767 4.19318 26.2188 4.47727 27.179 5.04545C28.1449 5.60795 28.8892 6.39773 29.4119 7.41477C29.9347 8.42614 30.196 9.60795 30.196 10.9602C30.196 12.3011 29.9347 13.4801 29.4119 14.4972C28.8892 15.5085 28.1449 16.2983 27.179 16.8665C26.2188 17.429 25.0767 17.7102 23.7528 17.7102ZM23.7699 14.8977C24.3722 14.8977 24.875 14.7273 25.2784 14.3864C25.6818 14.0398 25.9858 13.5682 26.1903 12.9716C26.4006 12.375 26.5057 11.696 26.5057 10.9347C26.5057 10.1733 26.4006 9.49432 26.1903 8.89773C25.9858 8.30114 25.6818 7.82955 25.2784 7.48295C24.875 7.13636 24.3722 6.96307 23.7699 6.96307C23.1619 6.96307 22.6506 7.13636 22.2358 7.48295C21.8267 7.82955 21.517 8.30114 21.3068 8.89773C21.1023 9.49432 21 10.1733 21 10.9347C21 11.696 21.1023 12.375 21.3068 12.9716C21.517 13.5682 21.8267 14.0398 22.2358 14.3864C22.6506 14.7273 23.1619 14.8977 23.7699 14.8977Z" fill="black"/>
<path d="M32.5568 17.4545V4.36364H36.017V6.6733H36.1705C36.4432 5.90625 36.8977 5.30114 37.5341 4.85795C38.1705 4.41477 38.9318 4.19318 39.8182 4.19318C40.7159 4.19318 41.4801 4.41761 42.1108 4.86648C42.7415 5.30966 43.1619 5.91193 43.3722 6.6733H43.5085C43.7756 5.9233 44.2585 5.32386 44.9574 4.875C45.6619 4.42045 46.4943 4.19318 47.4545 4.19318C48.6761 4.19318 49.6676 4.58239 50.429 5.3608C51.196 6.13352 51.5795 7.23011 51.5795 8.65057V17.4545H47.9574V9.36648C47.9574 8.6392 47.7642 8.09375 47.3778 7.73011C46.9915 7.36648 46.5085 7.18466 45.929 7.18466C45.2699 7.18466 44.7557 7.39489 44.3864 7.81534C44.017 8.23011 43.8324 8.77841 43.8324 9.46023V17.4545H40.3125V9.28977C40.3125 8.64773 40.1278 8.13636 39.7585 7.75568C39.3949 7.375 38.9148 7.18466 38.3182 7.18466C37.9148 7.18466 37.5511 7.28693 37.2273 7.49148C36.9091 7.69034 36.6562 7.97159 36.4688 8.33523C36.2812 8.69318 36.1875 9.11364 36.1875 9.59659V17.4545H32.5568Z" fill="black"/>
<path d="M60.4134 17.7102C59.0668 17.7102 57.9077 17.4375 56.9361 16.892C55.9702 16.3409 55.2259 15.5625 54.7031 14.5568C54.1804 13.5455 53.919 12.3494 53.919 10.9688C53.919 9.62216 54.1804 8.44034 54.7031 7.4233C55.2259 6.40625 55.9616 5.61364 56.9105 5.04545C57.8651 4.47727 58.9844 4.19318 60.2685 4.19318C61.1321 4.19318 61.9361 4.33239 62.6804 4.6108C63.4304 4.88352 64.0838 5.29545 64.6406 5.84659C65.2031 6.39773 65.6406 7.09091 65.9531 7.92614C66.2656 8.75568 66.4219 9.72727 66.4219 10.8409V11.8381H55.3679V9.58807H63.0043C63.0043 9.06534 62.8906 8.60227 62.6634 8.19886C62.4361 7.79545 62.1207 7.48011 61.7173 7.25284C61.3196 7.01989 60.8565 6.90341 60.3281 6.90341C59.777 6.90341 59.2884 7.03125 58.8622 7.28693C58.4418 7.53693 58.1122 7.875 57.8736 8.30114C57.6349 8.72159 57.5128 9.19034 57.5071 9.70739V11.8466C57.5071 12.4943 57.6264 13.054 57.8651 13.5256C58.1094 13.9972 58.4531 14.3608 58.8963 14.6165C59.3395 14.8722 59.8651 15 60.473 15C60.8764 15 61.2457 14.9432 61.581 14.8295C61.9162 14.7159 62.2031 14.5455 62.4418 14.3182C62.6804 14.0909 62.8622 13.8125 62.9872 13.483L66.3452 13.7045C66.1747 14.5114 65.8253 15.2159 65.2969 15.8182C64.7741 16.4148 64.098 16.8807 63.2685 17.2159C62.4446 17.5455 61.4929 17.7102 60.4134 17.7102Z" fill="black"/>
<path d="M68.8125 17.4545V15.2642L77.5227 3.04261H68.7955V0H82.1591V2.19034L73.4403 14.4119H82.1761V17.4545H68.8125Z" fill="#119BA4"/>
<path d="M90.9055 17.7102C89.559 17.7102 88.3999 17.4375 87.4283 16.892C86.4624 16.3409 85.718 15.5625 85.1953 14.5568C84.6726 13.5455 84.4112 12.3494 84.4112 10.9688C84.4112 9.62216 84.6726 8.44034 85.1953 7.4233C85.718 6.40625 86.4538 5.61364 87.4027 5.04545C88.3572 4.47727 89.4766 4.19318 90.7607 4.19318C91.6243 4.19318 92.4283 4.33239 93.1726 4.6108C93.9226 4.88352 94.576 5.29545 95.1328 5.84659C95.6953 6.39773 96.1328 7.09091 96.4453 7.92614C96.7578 8.75568 96.9141 9.72727 96.9141 10.8409V11.8381H85.8601V9.58807H93.4965C93.4965 9.06534 93.3828 8.60227 93.1555 8.19886C92.9283 7.79545 92.6129 7.48011 92.2095 7.25284C91.8118 7.01989 91.3487 6.90341 90.8203 6.90341C90.2692 6.90341 89.7805 7.03125 89.3544 7.28693C88.9339 7.53693 88.6044 7.875 88.3658 8.30114C88.1271 8.72159 88.005 9.19034 87.9993 9.70739V11.8466C87.9993 12.4943 88.1186 13.054 88.3572 13.5256C88.6016 13.9972 88.9453 14.3608 89.3885 14.6165C89.8317 14.8722 90.3572 15 90.9652 15C91.3686 15 91.7379 14.9432 92.0732 14.8295C92.4084 14.7159 92.6953 14.5455 92.934 14.3182C93.1726 14.0909 93.3544 13.8125 93.4794 13.483L96.8374 13.7045C96.6669 14.5114 96.3175 15.2159 95.7891 15.8182C95.2663 16.4148 94.5902 16.8807 93.7607 17.2159C92.9368 17.5455 91.9851 17.7102 90.9055 17.7102Z" fill="#119BA4"/>
<path d="M102.914 9.88636V17.4545H99.2834V4.36364H102.744V6.6733H102.897C103.187 5.91193 103.673 5.30966 104.354 4.86648C105.036 4.41761 105.863 4.19318 106.835 4.19318C107.744 4.19318 108.536 4.39205 109.212 4.78977C109.888 5.1875 110.414 5.75568 110.789 6.49432C111.164 7.22727 111.352 8.10227 111.352 9.11932V17.4545H107.721V9.76705C107.727 8.96591 107.522 8.34091 107.107 7.89205C106.692 7.4375 106.121 7.21023 105.394 7.21023C104.906 7.21023 104.474 7.31534 104.099 7.52557C103.729 7.7358 103.44 8.04261 103.229 8.44602C103.025 8.84375 102.92 9.32386 102.914 9.88636Z" fill="#119BA4"/>
</svg>
