<svg width="15" height="15" viewBox="0 0 15 15" fill="none" xmlns="http://www.w3.org/2000/svg">
<g clip-path="url(#clip0_2404_33297)">
<path d="M6.9893 1.17979C7.11445 0.878886 7.54072 0.878886 7.66587 1.17979L9.17982 4.81975C9.23258 4.94661 9.35188 5.03328 9.48882 5.04426L13.4185 5.3593C13.7433 5.38534 13.875 5.79074 13.6275 6.00276L10.6336 8.56742C10.5292 8.65679 10.4837 8.79704 10.5155 8.93067L11.4302 12.7653C11.5059 13.0823 11.161 13.3329 10.8829 13.163L7.51856 11.1081C7.40132 11.0365 7.25386 11.0365 7.13661 11.1081L3.77228 13.163C3.49417 13.3329 3.14931 13.0823 3.22493 12.7653L4.13964 8.93067C4.17151 8.79704 4.12595 8.65679 4.02161 8.56742L1.02763 6.00276C0.780127 5.79074 0.91185 5.38534 1.2367 5.3593L5.16635 5.04426C5.3033 5.03328 5.42259 4.94661 5.47535 4.81975L6.9893 1.17979Z" fill="#F2F4F7"/>
<g clip-path="url(#clip1_2404_33297)">
<path d="M6.9893 1.17979C7.11445 0.878886 7.54072 0.878886 7.66587 1.17979L9.17982 4.81975C9.23258 4.94661 9.35188 5.03328 9.48882 5.04426L13.4185 5.3593C13.7433 5.38534 13.875 5.79074 13.6275 6.00276L10.6336 8.56742C10.5292 8.65679 10.4837 8.79704 10.5155 8.93067L11.4302 12.7653C11.5059 13.0823 11.161 13.3329 10.8829 13.163L7.51856 11.1081C7.40132 11.0365 7.25386 11.0365 7.13661 11.1081L3.77228 13.163C3.49417 13.3329 3.14931 13.0823 3.22493 12.7653L4.13964 8.93067C4.17151 8.79704 4.12595 8.65679 4.02161 8.56742L1.02763 6.00276C0.780127 5.79074 0.91185 5.38534 1.2367 5.3593L5.16635 5.04426C5.3033 5.03328 5.42259 4.94661 5.47535 4.81975L6.9893 1.17979Z" fill="#FEC84B"/>
</g>
</g>
<defs>
<clipPath id="clip0_2404_33297">
<rect width="14.6552" height="14.6552" fill="white"/>
</clipPath>
<clipPath id="clip1_2404_33297">
<rect width="14.6552" height="14.6552" fill="white"/>
</clipPath>
</defs>
</svg>
